# Blender 3.5.0
# www.blender.org
mtllib FencePost.mtl
o Cube.020
v 0.098738 -0.029663 -0.209084
v 0.098738 2.504560 -0.209084
v 0.098738 -0.029663 0.209084
v 0.098738 2.504560 0.209084
v -0.319429 -0.029663 -0.209084
v -0.319429 2.504560 -0.209084
v -0.319429 -0.029663 0.209084
v -0.319429 2.504560 0.209084
v 0.098738 1.237448 -0.209084
v 0.098738 1.237448 0.209084
v -0.319429 1.237448 0.209084
v -0.319429 1.237448 -0.209084
v 0.098738 1.871004 -0.209084
v 0.098738 1.871004 0.209084
v -0.319429 1.871004 0.209084
v -0.319429 1.871004 -0.209084
v 0.098738 0.603893 0.209084
v -0.319429 0.603893 0.209084
v -0.319429 0.603893 -0.209084
v 0.098738 0.603893 -0.209084
v 0.098738 2.187782 -0.209084
v 0.098738 2.187782 0.209084
v -0.319429 2.187782 0.209084
v -0.319429 2.187782 -0.209084
v 0.098738 0.287115 0.209084
v -0.319429 0.287115 0.209084
v -0.319429 0.287115 -0.209084
v 0.098738 0.287115 -0.209084
v 0.098738 0.920670 -0.209084
v 0.098738 0.920670 0.209084
v -0.319429 0.920670 0.209084
v -0.319429 0.920670 -0.209084
v 0.098738 1.554226 0.209084
v -0.319429 1.554226 0.209084
v -0.319429 1.554226 -0.209084
v 0.098738 1.554226 -0.209084
v -0.319429 1.790185 0.102397
v -0.319429 1.790185 -0.102397
v -0.319429 1.635045 0.102397
v -0.319429 1.635045 -0.102397
v -0.319429 0.845207 0.109467
v -0.319429 0.679356 0.109467
v -0.319429 0.845207 -0.109467
v -0.319429 0.679356 -0.109467
vn 1.0000 -0.0000 -0.0000
vn -0.0000 -0.0000 1.0000
vn -1.0000 -0.0000 -0.0000
vn -0.0000 -0.0000 -1.0000
vn -0.0000 -1.0000 -0.0000
vn -0.0000 1.0000 -0.0000
vt 0.125000 0.750000
vt 0.375000 1.000000
vt 0.375000 0.000000
vt 0.625000 0.000000
vt 0.625000 1.000000
vt 0.875000 0.750000
vt 0.125000 0.500000
vt 0.375000 0.250000
vt 0.625000 0.250000
vt 0.875000 0.500000
vt 0.375000 0.750000
vt 0.625000 0.750000
vt 0.375000 0.500000
vt 0.625000 0.500000
vt 0.500000 0.000000
vt 0.500000 1.000000
vt 0.500000 0.250000
vt 0.500000 0.500000
vt 0.500000 0.750000
vt 0.562500 1.000000
vt 0.562500 0.000000
vt 0.562500 0.250000
vt 0.562500 0.500000
vt 0.562500 0.750000
vt 0.437500 0.250000
vt 0.437500 0.500000
vt 0.437500 0.750000
vt 0.437500 0.000000
vt 0.437500 1.000000
vt 0.593750 1.000000
vt 0.593750 0.000000
vt 0.593750 0.250000
vt 0.593750 0.500000
vt 0.593750 0.750000
vt 0.406250 0.250000
vt 0.406250 0.500000
vt 0.406250 0.750000
vt 0.406250 1.000000
vt 0.406250 0.000000
vt 0.468750 0.000000
vt 0.468750 1.000000
vt 0.468750 0.250000
vt 0.468750 0.500000
vt 0.468750 0.750000
vt 0.531250 0.250000
vt 0.531250 0.500000
vt 0.531250 0.750000
vt 0.531250 0.000000
vt 0.531250 1.000000
vt 0.562500 0.500000
vt 0.562500 0.750000
vt 0.531250 0.500000
vt 0.531250 0.750000
vt 0.468750 0.500000
vt 0.437500 0.500000
vt 0.468750 0.750000
vt 0.437500 0.750000
s 0
usemtl Material.001
f 21/31/1 2/4/1 4/9/1 22/32/1
f 22/32/2 4/9/2 8/14/2 23/33/2
f 23/33/3 8/14/3 6/12/3 24/34/3
f 24/34/4 6/12/4 2/5/4 21/30/4
f 3/7/5 7/13/5 5/11/5 1/1/5
f 8/14/6 4/10/6 2/6/6 6/12/6
f 32/44/4 12/19/4 9/16/4 29/41/4
f 31/43/3 11/18/3 12/19/3 32/44/3
f 30/42/2 10/17/2 11/18/2 31/43/2
f 29/40/1 9/15/1 10/17/1 30/42/1
f 35/47/4 16/24/4 13/20/4 36/49/4
f 34/46/3 15/23/3 37/50/3 39/52/3
f 33/45/2 14/22/2 15/23/2 34/46/2
f 36/48/1 13/21/1 14/22/1 33/45/1
f 28/39/1 20/28/1 17/25/1 25/35/1
f 25/35/2 17/25/2 18/26/2 26/36/2
f 27/37/4 19/27/4 20/29/4 28/38/4
f 16/24/4 24/34/4 21/30/4 13/20/4
f 14/22/2 22/32/2 23/33/2 15/23/2
f 13/21/1 21/31/1 22/32/1 14/22/1
f 5/11/4 27/37/4 28/38/4 1/2/4
f 7/13/3 26/36/3 27/37/3 5/11/3
f 3/8/2 25/35/2 26/36/2 7/13/2
f 1/3/1 28/39/1 25/35/1 3/8/1
f 20/28/1 29/40/1 30/42/1 17/25/1
f 17/25/2 30/42/2 31/43/2 18/26/2
f 19/27/3 18/26/3 42/55/3 44/57/3
f 19/27/4 32/44/4 29/41/4 20/29/4
f 9/15/1 36/48/1 33/45/1 10/17/1
f 10/17/2 33/45/2 34/46/2 11/18/2
f 11/18/3 34/46/3 35/47/3 12/19/3
f 12/19/4 35/47/4 36/49/4 9/16/4
f 35/47/3 34/46/3 39/52/3 40/53/3
f 16/24/3 35/47/3 40/53/3 38/51/3
f 15/23/3 16/24/3 38/51/3 37/50/3
f 32/44/3 19/27/3 44/57/3 43/56/3
f 18/26/3 31/43/3 41/54/3 42/55/3
f 31/43/3 32/44/3 43/56/3 41/54/3
f 19/27/3 27/37/3 26/36/3 18/26/3
f 42/55/3 41/54/3 43/56/3 44/57/3
f 38/51/3 40/53/3 39/52/3 37/50/3
f 15/23/3 23/33/3 24/34/3 16/24/3
